<svg width="1080" height="1080" viewBox="0 0 1080 1080" fill="none" xmlns="http://www.w3.org/2000/svg">
<rect width="1080" height="1080" rx="540" fill="white"/>
<path d="M923.052 657.854L948 633.309L923.052 608.783L706.829 624.771C706.51 615.613 705.617 606.485 704.155 597.444L897.007 583.186L872.531 559.145L701.197 582.784C696.117 561.116 687.759 540.401 676.427 521.395L813.857 413.663L814.606 378.887L668.435 508.839C663.244 501.392 657.604 494.286 651.55 487.562L815.417 341.869L816.183 306.388L781.638 307.184L639.771 475.491C633.222 469.253 626.297 463.445 619.037 458.103L745.561 308.017L711.702 308.786L606.848 449.93C588.341 438.296 568.178 429.705 547.087 424.471L570.093 248.514L546.659 223.384L532.786 421.487C523.991 419.974 515.11 419.042 506.198 418.696L521.764 196.624L497.867 171L473.988 196.624L489.554 418.696C480.637 419.043 471.75 419.976 462.948 421.487L449.066 223.384L425.659 248.514L448.647 424.471C427.578 429.71 407.435 438.3 388.949 449.93L284.005 308.786L250.147 308.017L376.698 458.167C374.025 460.089 371.477 462.102 368.928 464.161C362.005 464.582 355.046 465.25 348.061 466.119L214.114 307.166L179.56 306.388L180.327 341.869L323.976 469.597C312.58 471.427 301.166 473.486 289.726 475.436L181.129 378.887L181.904 413.663L265.597 479.27C218.631 486.024 172.477 486.921 131.053 459.027C178.429 521.34 244.302 505.7 310.424 493.858C321.384 491.89 332.37 490.023 343.267 488.641C372.911 484.908 402.012 484.706 428.805 495.578C443.952 501.701 456.693 518.192 463.866 532.541C469.88 544.557 479.601 569.422 470.397 581.823C469.666 582.888 468.685 583.747 467.546 584.321C464.267 585.794 460.641 583.516 457.691 581.447C427.325 560.198 393.796 554.441 357.835 555.567C376.457 560.774 395.258 564.416 412.499 573.769C422.201 579.018 431.373 585.241 439.88 592.347C447.418 598.652 453.682 607.392 462.155 612.004C483.272 623.481 504.701 621.092 527.467 618.045C664.3 603.402 707.078 733.354 717.922 848.142C717.432 842.935 689.204 835.33 684.678 834.104C672.283 830.794 659.585 828.828 646.792 828.237C621.237 826.828 595.656 829.711 570.343 833.051C522.442 839.357 468.954 855.701 424.118 828.475C414.513 822.655 405.496 812.918 408.4 800.664C446.714 825.373 500.371 794.175 499.444 747.75C493.679 766.757 468.366 778.599 449.877 778.197C409.541 773.163 460.667 696.437 465.639 677.154C485.598 597.087 371.753 560.463 312.135 555.933C245.05 549.206 196.606 631.479 131 601.91C137.362 677.941 426.14 733.803 412.499 642.69C400.844 659.162 369.392 652.866 353.104 646.542C343.81 641.271 337.306 628.907 329.741 621.129C284.789 553.233 454.591 614.722 439.212 665.971C434.204 682.636 432.663 696.849 423.53 712.543C414.121 728.705 402.439 743.329 392.674 759.216C371.289 794.047 370.069 830.379 405.237 857.266C418.941 867.736 436.547 871.039 453.557 872.613C503.276 877.189 549.84 858.767 599.684 855.829C622.85 854.466 646.222 853.578 669.032 857.815C703.63 864.221 723.517 881.353 743.877 909C741.427 859.334 738.923 809.312 727.055 761.111C721.847 735.575 712.697 711.06 699.95 688.493C699.95 688.493 699.95 688.42 699.887 688.374C700.28 686.846 700.778 685.345 701.117 683.798L872.451 707.428L896.927 683.396L704.12 669.202C705.581 660.161 706.474 651.033 706.793 641.875L923.052 657.854ZM243.161 647.604C227.026 644.145 211.222 639.217 195.937 632.879C212.867 624.872 229.974 613.661 246.984 604.683C245.665 616.333 244.106 631.772 243.161 647.604Z" fill="#0032A0"/>
</svg>
